2014029_C4_05_grf
version=1
nRows=30
nColumns=19
inDegrees=no
endheader
time	ground_force_1_vx	ground_force_1_vy	ground_force_1_vz	ground_force_1_px	ground_force_1_py	ground_force_1_pz	ground_force_1_mx	ground_force_1_my	ground_force_1_mz	ground_force_2_vx	ground_force_2_vy	ground_force_2_vz	ground_force_2_px	ground_force_2_py	ground_force_2_pz	ground_force_2_mx	ground_force_2_my	ground_force_2_mz
      0.48500000	    -14.30987986	    789.76444900	     46.99917734	      0.24947312	     -0.00200000	     -0.35060578	      0.00000000	     -1.94355099	      0.00000000	      0.00000000	      0.00000000	      0.00000000	      0.00000000	      0.00000000	      0.00000000	      0.00000000	      0.00000000	      0.00000000
      0.48600000	    -14.06921260	    790.15821218	     47.06431776	      0.24994792	     -0.00200000	     -0.35065651	      0.00000000	     -1.94458381	     -0.00000000	      0.00000000	      0.00000000	      0.00000000	      0.00000000	      0.00000000	      0.00000000	      0.00000000	      0.00000000	      0.00000000
      0.48700000	    -13.82496255	    790.56728631	     47.13293947	      0.25041978	     -0.00200000	     -0.35070707	      0.00000000	     -1.94549216	     -0.00000000	      0.00000000	      0.00000000	      0.00000000	      0.00000000	      0.00000000	      0.00000000	      0.00000000	      0.00000000	      0.00000000
      0.48800000	    -13.57790735	    790.98887742	     47.20432013	      0.25088928	     -0.00200000	     -0.35075751	      0.00000000	     -1.94630473	      0.00000000	      0.00000000	      0.00000000	      0.00000000	      0.00000000	      0.00000000	      0.00000000	      0.00000000	      0.00000000	      0.00000000
      0.48900000	    -13.32741510	    791.42685980	     47.27912731	      0.25135581	     -0.00200000	     -0.35080773	      0.00000000	     -1.94700068	      0.00000000	      0.00000000	      0.00000000	      0.00000000	      0.00000000	      0.00000000	      0.00000000	      0.00000000	      0.00000000	      0.00000000
      0.49000000	    -13.07422854	    791.87832773	     47.35665172	      0.25181995	     -0.00200000	     -0.35085776	      0.00000000	     -1.94760650	      0.00000000	      0.00000000	      0.00000000	      0.00000000	      0.00000000	      0.00000000	      0.00000000	      0.00000000	      0.00000000	      0.00000000
      0.49100000	    -12.81773439	    792.34737903	     47.43755832	      0.25228108	     -0.00200000	     -0.35090747	      0.00000000	     -1.94810310	      0.00000000	      0.00000000	      0.00000000	      0.00000000	      0.00000000	      0.00000000	      0.00000000	      0.00000000	      0.00000000	      0.00000000
      0.49200000	    -12.55863253	    792.83088446	     47.52114564	      0.25273980	     -0.00200000	     -0.35095692	      0.00000000	     -1.94851445	      0.00000000	      0.00000000	      0.00000000	      0.00000000	      0.00000000	      0.00000000	      0.00000000	      0.00000000	      0.00000000	      0.00000000
      0.49300000	    -12.29630969	    793.33305359	     47.60805778	      0.25319547	     -0.00200000	     -0.35100601	      0.00000000	     -1.94882069	      0.00000000	      0.00000000	      0.00000000	      0.00000000	      0.00000000	      0.00000000	      0.00000000	      0.00000000	      0.00000000	      0.00000000
      0.49400000	    -12.03142852	    793.85071993	     47.69759849	      0.25364867	     -0.00200000	     -0.35105478	      0.00000000	     -1.94904314	      0.00000000	      0.00000000	      0.00000000	      0.00000000	      0.00000000	      0.00000000	      0.00000000	      0.00000000	      0.00000000	      0.00000000
      0.49500000	    -11.76335989	    794.38820481	     47.79039621	      0.25409877	     -0.00200000	     -0.35110313	      0.00000000	     -1.94916206	      0.00000000	      0.00000000	      0.00000000	      0.00000000	      0.00000000	      0.00000000	      0.00000000	      0.00000000	      0.00000000	      0.00000000
      0.49600000	    -11.49273850	    794.94215548	     47.88576514	      0.25454634	     -0.00200000	     -0.35115107	      0.00000000	     -1.94919872	      0.00000000	      0.00000000	      0.00000000	      0.00000000	      0.00000000	      0.00000000	      0.00000000	      0.00000000	      0.00000000	      0.00000000
      0.49700000	    -11.21891476	    795.51711679	     47.98432328	      0.25499072	     -0.00200000	     -0.35119846	      0.00000000	     -1.94913575	      0.00000000	      0.00000000	      0.00000000	      0.00000000	      0.00000000	      0.00000000	      0.00000000	      0.00000000	      0.00000000	      0.00000000
      0.49800000	    -10.94250847	    796.10943794	     48.08539525	      0.25543252	     -0.00200000	     -0.35124536	      0.00000000	     -1.94899622	      0.00000000	      0.00000000	      0.00000000	      0.00000000	      0.00000000	      0.00000000	      0.00000000	      0.00000000	      0.00000000	      0.00000000
      0.49900000	    -10.66283695	    796.72403634	     48.18958081	      0.25587105	     -0.00200000	     -0.35129157	      0.00000000	     -1.94876635	      0.00000000	      0.00000000	      0.00000000	      0.00000000	      0.00000000	      0.00000000	      0.00000000	      0.00000000	      0.00000000	      0.00000000
      0.50000000	    -10.38050931	    797.35688865	     48.29622284	      0.25630692	     -0.00200000	     -0.35133719	      0.00000000	     -1.94846922	      0.00000000	      0.00000000	      0.00000000	      0.00000000	      0.00000000	      0.00000000	      0.00000000	      0.00000000	      0.00000000	      0.00000000
      0.50100000	    -10.09479351	    798.01313579	     48.40591326	      0.25673941	     -0.00200000	     -0.35138199	      0.00000000	     -1.94809544	      0.00000000	      0.00000000	      0.00000000	      0.00000000	      0.00000000	      0.00000000	      0.00000000	      0.00000000	      0.00000000	      0.00000000
      0.50200000	     -9.80630144	    798.68867993	     48.51801321	      0.25716915	     -0.00200000	     -0.35142609	      0.00000000	     -1.94766546	     -0.00000000	      0.00000000	      0.00000000	      0.00000000	      0.00000000	      0.00000000	      0.00000000	      0.00000000	      0.00000000	      0.00000000
      0.50300000	     -9.51424241	    799.38892275	     48.63310419	      0.25759540	     -0.00200000	     -0.35146924	      0.00000000	     -1.94716648	      0.00000000	      0.00000000	      0.00000000	      0.00000000	      0.00000000	      0.00000000	      0.00000000	      0.00000000	      0.00000000	      0.00000000
      0.50400000	     -9.21924133	    800.10935664	     48.75058383	      0.25801881	     -0.00200000	     -0.35151162	      0.00000000	     -1.94661066	      0.00000000	      0.00000000	      0.00000000	      0.00000000	      0.00000000	      0.00000000	      0.00000000	      0.00000000	      0.00000000	      0.00000000
      0.50500000	     -8.92044278	    800.85564405	     48.87103625	      0.25843862	     -0.00200000	     -0.35155301	      0.00000000	     -1.94597736	      0.00000000	      0.00000000	      0.00000000	      0.00000000	      0.00000000	      0.00000000	      0.00000000	      0.00000000	      0.00000000	      0.00000000
      0.50600000	     -8.61850381	    801.62301660	     48.99386689	      0.25885548	     -0.00200000	     -0.35159358	      0.00000000	     -1.94527481	      0.00000000	      0.00000000	      0.00000000	      0.00000000	      0.00000000	      0.00000000	      0.00000000	      0.00000000	      0.00000000	      0.00000000
      0.50700000	     -8.31249217	    802.41739750	     49.11967553	      0.25926861	     -0.00200000	     -0.35163312	      0.00000000	     -1.94447228	      0.00000000	      0.00000000	      0.00000000	      0.00000000	      0.00000000	      0.00000000	      0.00000000	      0.00000000	      0.00000000	      0.00000000
      0.50800000	     -8.00308958	    803.23383212	     49.24787804	      0.25967868	     -0.00200000	     -0.35167180	      0.00000000	     -1.94357675	      0.00000000	      0.00000000	      0.00000000	      0.00000000	      0.00000000	      0.00000000	      0.00000000	      0.00000000	      0.00000000	      0.00000000
      0.50900000	     -7.68927182	    804.07828093	     49.37909506	      0.26008488	     -0.00200000	     -0.35170940	      0.00000000	     -1.94254623	     -0.00000000	      0.00000000	      0.00000000	      0.00000000	      0.00000000	      0.00000000	      0.00000000	      0.00000000	      0.00000000	      0.00000000
      0.51000000	     -7.37177581	    804.94560301	     49.51274768	      0.26048790	     -0.00200000	     -0.35174611	      0.00000000	     -1.94139120	      0.00000000	      0.00000000	      0.00000000	      0.00000000	      0.00000000	      0.00000000	      0.00000000	      0.00000000	      0.00000000	      0.00000000
      0.51100000	     -7.04950024	    805.84194511	     49.64948781	      0.26088688	     -0.00200000	     -0.35178172	      0.00000000	     -1.94005913	      0.00000000	      0.00000000	      0.00000000	      0.00000000	      0.00000000	      0.00000000	      0.00000000	      0.00000000	      0.00000000	      0.00000000
      0.51200000	     -6.72325399	    806.76190555	     49.78874177	      0.26128257	     -0.00200000	     -0.35181645	      0.00000000	     -1.93856877	      0.00000000	      0.00000000	      0.00000000	      0.00000000	      0.00000000	      0.00000000	      0.00000000	      0.00000000	      0.00000000	      0.00000000
      0.51300000	     -6.39185752	    807.71170557	     49.93119538	      0.26167406	     -0.00200000	     -0.35185011	      0.00000000	     -1.93685922	      0.00000000	      0.00000000	      0.00000000	      0.00000000	      0.00000000	      0.00000000	      0.00000000	      0.00000000	      0.00000000	      0.00000000
      0.51400000	     -6.05619093	    808.68557096	     50.07625669	      0.26206215	     -0.00200000	     -0.35188295	      0.00000000	     -1.93495547	      0.00000000	      0.00000000	      0.00000000	      0.00000000	      0.00000000	      0.00000000	      0.00000000	      0.00000000	      0.00000000	      0.00000000
